<?xml version="1.0" encoding="UTF-8" standalone="no"?>
<!-- Created with Inkscape (http://www.inkscape.org/) -->

<svg
   version="1.1"
   id="svg1"
   width="1024"
   height="1024"
   viewBox="0 0 1024 1024"
   xmlns:xlink="http://www.w3.org/1999/xlink"
   xmlns="http://www.w3.org/2000/svg"
   xmlns:svg="http://www.w3.org/2000/svg">
  <defs
     id="defs1" />
  <g
     id="g1">    
  </g>
  <g
     id="layer1">
    <path
       style="fill:#000000"
       d="m 356.76261,449.96802 c 13.53997,12.28044 41.24969,27.39483 41.24969,27.39483 l 25.82042,9.13162 36.84133,8.18696 47.54735,5.98278 44.08364,-1.25954 62.34687,-10.39114 58.56826,-27.39483 34.95203,-35.5818 14.16974,-27.07995 7.24232,-34.63715 -0.94465,-24.56088 -2.51907,-28.33949 -9.44649,-32.11808 -20.15252,-45.97294 -26.45019,-35.89668 -46.6027,-36.84132 -38.10087,-13.2251 -41.87945,-10.39114 h -41.87946 l -35.89668,5.98278 -43.13899,13.85486 -28.96925,17.31857 -25.82042,23.61624 -16.37393,22.04182 -15.11439,27.70972 -11.65067,26.76506 -9.4465,28.33949 -5.98278,36.84132 3.7786,31.8032 8.18696,29.9139 16.05904,28.96925 z"
       id="bear-head" />
    <path
       style="fill:#000000"
       d="m 447.13407,491.21771 c -25.82042,32.74785 -45.97294,76.20172 -45.97294,76.20172 l -16.41154,35.53305 -11.13281,29.8359 -12.02342,44.97651 -2.22656,27.60935 -11.57811,11.1328 -28.49997,11.57811 -16.92186,-2.22656 -21.37498,-16.47654 -8.90624,-23.15623 -0.89062,-20.03904 4.89843,-19.14841 9.79687,-20.92967 8.46093,-20.48435 9.79686,-18.2578 16.03123,-21.82028 21.37498,-24.49217 16.03123,-14.24998 21.82029,-20.92967 17.81248,-14.69529 9.35155,-9.79687 z"
       id="bear-right-arm" />
    <path
       style="fill:#000000"
       d="m 668.85865,195.04666 c 0,0 -9.79686,8.90625 0,0 z"
       id="path3" />
    <path
       style="fill:#000000"
       d="m 669.74928,196.3826 c 0,0 -8.46093,9.79687 0,0 z"
       id="path4" />
    <path
       style="fill:#000000"
       d="m 670.6399,195.04666 c 0,0 -6.23437,9.79687 0,0 z"
       id="path5" />
    <path
       style="fill:#000000"
       d="m 631.89776,480.49167 c 42.30464,36.07027 65.01555,61.45306 65.01555,61.45306 l 38.29684,48.98432 22.71091,41.41402 10.68749,41.85933 -7.57031,32.06246 -17.81248,14.6953 -15.58592,7.5703 -5.78906,0.89063 -12.46873,-8.90624 -16.03123,-4.45312 -6.67969,-6.67968 -6.67968,-9.35155 -1.78124,-29.83591 -7.57031,-35.17965 -16.92185,-36.9609 -16.47655,-36.51558 -5.78906,-10.68749 -15.58592,-31.61715 -12.46873,-20.92967 -6.23437,-9.35155 z"
       id="bear-left-arm" />
    <path
       style="fill:#000000"
       d="m 446.20264,491.17916 -37.85152,61.89837 -23.15622,49.42963 -10.24218,29.3906 -8.01562,34.73433 -4.0078,11.1328 -0.44532,26.71873 2.22656,7.5703 18.70311,-0.44531 17.36717,6.23437 17.81248,9.79686 15.14061,13.80467 12.02342,12.46874 17.36717,12.46874 25.38279,9.35155 27.16403,4.45312 24.04685,-0.89063 31.17184,-4.45312 17.81248,-7.5703 19.14842,-11.1328 15.58592,-19.14842 19.14841,-14.24998 20.03905,-8.01562 16.03123,-0.89062 0.44531,-21.37498 -2.22656,-28.05466 -7.12499,-29.39059 -12.02343,-28.05466 -13.80467,-28.05465 -17.36717,-37.85153 -12.46873,-22.2656 -11.57812,-20.92966 -2.22656,-4.45312 -0.44531,-1.78125 -49.42963,7.5703 h -40.96871 l -32.95309,-3.11718 z"
       id="bear-belly" />
    <path
       style="fill:#000000"
       d="m 348.67931,752.132 -12.02342,13.80467 -2.22656,14.6953 -3.11719,23.15623 4.89844,25.82809 13.80467,24.49216 18.7031,21.37498 27.16404,10.24218 27.60934,-4.89843 18.25779,-22.26561 3.11719,-23.60153 -5.34375,-29.83591 -8.46092,-20.92966 -13.35937,-17.36717 -17.81248,-13.80467 -16.47654,-6.67968 -20.03904,-1.33594 z"
       id="path8" />
    <path
       style="fill:#000000;stroke-width:0.9942"
       d="m 692.41212,747.62182 -17.95587,-2.56225 -12.91355,6.19157 -20.11912,10.08654 -17.52845,18.31586 -11.24974,25.09561 -5.9146,27.51618 7.8414,28.54034 20.06199,20.60155 28.29552,3.1753 20.47086,-10.33108 20.43302,-20.89242 11.56985,-18.63123 5.88294,-20.80727 0.45724,-22.60761 -4.38721,-17.56791 -10.69757,-17.63877 z"
       id="path8-8" />
    <path
       style="fill:#000000"
       d="m 635.01494,729.8664 -16.92186,16.47655 -15.1406,17.81248 -11.57812,20.92966 -10.24217,31.17184 -2.22656,29.83591 6.67968,26.27341 15.1406,19.59373 21.82029,13.35936 25.38279,4.45312 30.28122,-5.78906 24.49216,-16.47654 23.15622,-27.60935 15.14061,-31.17184 4.45312,-32.06247 -2.22656,-28.94528 -12.02342,-24.93747 -18.70311,-18.25779 -21.82029,-8.90624 -18.7031,-0.89063 -12.02343,3.11719 -12.91404,4.0078 z"
       id="bear-left-leg" />
    <path
       style="fill:#000000;stroke-width:1.03924"
       d="m 298.55856,790.09304 5.15933,23.99994 7.31884,23.16945 12.02983,21.75448 21.78306,26.23531 25.0332,18.43985 26.8152,8.63038 25.60749,-2.50872 23.80815,-11.8335 17.93571,-19.88945 11.62498,-29.85952 -0.97914,-30.66542 -11.51632,-35.6382 -19.07823,-30.5483 -25.76364,-21.63009 -26.70816,-14.02703 -28.58999,-3.18743 -26.39868,6.38332 -19.88835,14.29311 -11.11147,15.97579 -3.89525,12.30813 -3.60308,13.58421 z"
       id="bear-right-leg" />
    <path
       style="fill:#000000"
       d="m 364.26523,710.71798 18.2578,2.22656 19.14841,6.23437 18.25779,8.01562 16.47655,17.36717 21.82029,19.59373 18.25779,8.90624 25.8281,5.34374 29.39059,3.11719 20.03904,-2.67188 24.93748,-6.23437 19.14841,-8.46092 13.35936,-8.90624 14.6953,-16.92186 18.7031,-14.24999 16.47655,-7.12499 16.47654,-2.22656 -24.04684,5.34375 -14.24999,8.90624 -13.80467,12.91405 -12.46874,13.35936 -12.46874,15.58592 -9.79686,19.14841 -8.01562,30.28122 -3.56249,20.03904 1.33593,15.58592 2.22656,4.45312 -23.15622,5.78906 -23.15623,2.22656 h -29.8359 l -23.60154,-4.45312 -11.1328,-2.67187 8.01562,-14.6953 -1.78125,-20.48435 -3.5625,-21.37498 -7.12499,-15.58592 -8.46093,-17.81248 -9.79686,-16.47655 -21.82029,-19.14841 -22.71091,-14.24999 -22.2656,-8.46093 z"
       id="bear-butt" />
    <path
       style="fill:#000000"
       d="m 335.31995,248.48411 -21.82029,-16.92186 -5.34374,-20.03904 7.5703,-16.47655 14.6953,-10.68748 24.49216,-2.22656 8.46093,6.23436 7.5703,6.23437 -12.91405,16.92186 -10.68748,16.03123 z"
       id="path11" />
    <path
       style="fill:#000000;stroke-width:1.06598"
       d="m 665.73827,192.31722 25.54989,-14.69248 22.03252,2.75539 13.31515,14.03011 4.71072,18.72232 -7.61752,24.97382 -9.58238,5.82785 -9.22503,4.95209 -11.61295,-19.46278 -11.62242,-16.91732 z"
       id="path11-2" />
    <path
       style="fill:#000000"
       d="m 324.63246,276.53876 -29.8359,-11.1328 -19.14842,-26.71872 -4.45312,-32.50777 8.46093,-22.26561 14.6953,-24.04684 20.48435,-15.58593 26.27341,-8.46092 25.82809,3.11718 16.47655,9.35155 10.24218,12.02343 4.0078,8.46093 0.89063,3.11718 -19.59373,14.24998 -11.57811,13.80468 -12.91405,19.14841 -10.24218,17.81248 -12.46874,20.48436 -5.34374,14.69529 z"
       id="bear-ear1" />
    <path
       style="fill:#000000;stroke-width:1.04694"
       d="m 633.39843,170.35196 20.75644,-26.04567 32.92038,-10.47008 33.98399,5.9553 19.56937,15.49821 19.34498,22.25126 9.00867,25.29436 0.009,28.76374 -11.43967,24.62752 -14.67023,13.36119 -15.33767,6.32397 -9.76266,1.27605 -3.40805,-0.11113 -7.95783,-23.98455 -10.09356,-15.89075 -15.01391,-18.92116 -14.53679,-15.84431 -16.49502,-18.90569 -12.99322,-9.99027 z"
       id="bear-ear2" />
  </g>
</svg>
